Coordinates
version=1
nRows=16
nColumns=22
inDegrees=yes

Units are S.I. units (second, meters, Newtons, ...)
If the header above contains a line with 'inDegrees', this indicates whether rotational values are in degrees (yes) or radians (no).

endheader
time	pelvis_tilt	pelvis_list	pelvis_rotation	pelvis_tx	pelvis_ty	pelvis_tz	hip_flexion_r	hip_adduction_r	hip_rotation_r	knee_angle_r	ankle_angle_r	subtalar_angle_r	hip_flexion_l	hip_adduction_l	hip_rotation_l	knee_angle_l	ankle_angle_l	subtalar_angle_l	lumbar_extension	lumbar_bending	lumbar_rotation
      4.72000000	     -0.77667514	     -6.05242990	     14.21668456	      1.25791171	      0.96564488	     -0.30081518	      9.36900966	      7.57959915	     -8.72359090	    -17.65632878	      7.94094817	      0.53038090	     15.45251765	     -5.72145890	     14.54617042	    -23.29431174	     13.59287218	      5.34459649	     -0.18479054	      6.09317454	     -4.40874000
      4.73000000	     -0.76148586	     -6.01354149	     14.02019581	      1.26081528	      0.96571080	     -0.30104576	      9.10087363	      7.59798000	     -8.53007773	    -17.57901697	      8.08295677	      0.52397314	     15.25548195	     -5.72345188	     14.59343440	    -22.50111126	     13.07584549	      5.44217046	     -0.20000092	      6.04913267	     -4.38981186
      4.74000000	     -0.77458721	     -5.98100113	     13.81954932	      1.26367001	      0.96572633	     -0.30133133	      8.86575831	      7.60990760	     -8.32250548	    -17.49968976	      8.19752372	      0.52552613	     15.06844880	     -5.71723829	     14.68447440	    -21.77588135	     12.51187316	      5.61116003	     -0.17440471	      6.00661393	     -4.40634298
      4.75000000	     -0.77800627	     -5.95076222	     13.59858466	      1.26650639	      0.96573158	     -0.30162200	      8.62683887	      7.62499061	     -8.09673895	    -17.42959623	      8.32065544	      0.53279254	     14.84076159	     -5.72013324	     14.79081925	    -21.10929294	     11.92901446	      5.82660237	     -0.15417932	      5.96408503	     -4.42047719
      4.76000000	     -0.78176971	     -5.92304958	     13.36006125	      1.26932065	      0.96571429	     -0.30194063	      8.39416167	      7.63785432	     -7.86251618	    -17.36753623	      8.44267496	      0.54376391	     14.58466111	     -5.72991899	     14.88936411	    -20.50063412	     11.33741960	      6.05037834	     -0.12764709	      5.92460145	     -4.43122135
      4.77000000	     -0.78485420	     -5.90721750	     13.10575122	      1.27211293	      0.96566452	     -0.30226391	      8.17107832	      7.66123745	     -7.61684367	    -17.31663703	      8.56443179	      0.55603188	     14.30949699	     -5.75815989	     14.96199999	    -19.96115589	     10.75757412	      6.24355126	     -0.09312688	      5.89464812	     -4.43858170
      4.78000000	     -0.78138562	     -5.91131971	     12.83910128	      1.27487035	      0.96558609	     -0.30260877	      7.95077564	      7.70345969	     -7.35617663	    -17.27235748	      8.68634667	      0.57198380	     14.01404688	     -5.81574900	     14.98481116	    -19.48652028	     10.21768567	      6.37872015	     -0.05762953	      5.88890631	     -4.45049817
      4.79000000	     -0.78519861	     -5.93618595	     12.55885837	      1.27758867	      0.96546082	     -0.30293881	      7.74955250	      7.76456771	     -7.09345256	    -17.23521801	      8.80672631	      0.58469011	     13.71484479	     -5.90238802	     14.94082218	    -19.07342515	      9.73252185	      6.42080876	     -0.00738160	      5.89815546	     -4.45811261
      4.80000000	     -0.81469090	     -5.98688076	     12.27581410	      1.28023617	      0.96527204	     -0.30327714	      7.58568876	      7.84564470	     -6.81327632	    -17.19856476	      8.89244870	      0.59221984	     13.43818920	     -6.01419241	     14.83840748	    -18.71632002	      9.32154132	      6.38028661	      0.07873588	      5.92716682	     -4.49126755
      4.81000000	     -0.81644015	     -6.05734238	     11.97403895	      1.28285790	      0.96508475	     -0.30359540	      7.39780691	      7.95430100	     -6.52240647	    -17.16388087	      9.00320725	      0.59759118	     13.11513827	     -6.16666063	     14.63361974	    -18.39410197	      9.00616645	      6.20017312	      0.13877504	      5.98014072	     -4.50241029
      4.82000000	     -0.78773627	     -6.13868645	     11.69534370	      1.28543034	      0.96490869	     -0.30397034	      7.18556450	      8.07157185	     -6.28357880	    -17.13505191	      9.14108882	      0.59957240	     12.74156407	     -6.33435642	     14.39602717	    -18.08481952	      8.75885129	      5.74100773	      0.17067160	      6.05068794	     -4.54740938
      4.83000000	     -0.80933243	     -6.24238625	     11.40814183	      1.28792103	      0.96466790	     -0.30433958	      7.02672936	      8.20310895	     -6.01349721	    -17.09131757	      9.23690577	      0.58744412	     12.41160161	     -6.51928608	     14.09724046	    -17.78910124	      8.59618637	      5.26916153	      0.26299933	      6.13057466	     -4.59871543
      4.84000000	     -0.83323005	     -6.35069585	     11.13362671	      1.29035414	      0.96443785	     -0.30473514	      6.86617889	      8.33680589	     -5.75435801	    -17.03324840	      9.31976722	      0.56537365	     12.06263951	     -6.70838614	     13.77389949	    -17.47786842	      8.50161029	      4.71016559	      0.36172560	      6.21065573	     -4.67523852
      4.85000000	     -0.89219962	     -6.48232264	     10.85337507	      1.29269560	      0.96418077	     -0.30511968	      6.74199593	      8.49135742	     -5.45789648	    -16.95704806	      9.35360304	      0.54903149	     11.75390993	     -6.91797186	     13.39788913	    -17.17562727	      8.50595215	      4.29210140	      0.50161544	      6.30551675	     -4.76092480
      4.86000000	     -0.89704612	     -6.56271556	     10.62678479	      1.29503163	      0.96404258	     -0.30564593	      6.54251337	      8.58786481	     -5.25687541	    -16.86953913	      9.44886020	      0.50018511	     11.32109289	     -7.07186615	     13.10414943	    -16.77456383	      8.47242283	      3.53347688	      0.58384534	      6.35486080	     -4.89648245
      4.87000000	     -0.96240308	     -6.67264787	     10.38061158	      1.29725030	      0.96386447	     -0.30613660	      6.40911084	      8.71001200	     -4.98468335	    -16.76329029	      9.47034284	      0.47557256	     10.97954273	     -7.24916352	     12.74431924	    -16.40302466	      8.53873931	      3.13254656	      0.73403930	      6.42259885	     -5.02947689
